<?xml version="1.0" encoding="utf-8"?>
<!-- Generator: Adobe Illustrator 15.0.0, SVG Export Plug-In . SVG Version: 6.00 Build 0)  -->
<!DOCTYPE svg PUBLIC "-//W3C//DTD SVG 1.1//EN" "http://www.w3.org/Graphics/SVG/1.1/DTD/svg11.dtd">
<svg version="1.1" id="Слой_1" xmlns="http://www.w3.org/2000/svg" xmlns:xlink="http://www.w3.org/1999/xlink" x="0px" y="0px"
	 width="4.561px" height="12.479px" viewBox="0 0 4.561 12.479" enable-background="new 0 0 4.561 12.479" xml:space="preserve">
<path fill-rule="evenodd" clip-rule="evenodd" d="M4.43,9.266C4.174,9.578,3.57,9.753,2.638,9.787v0.99
	c0.004,0.019,0.006,0.038,0.006,0.058c0,0.043-0.003,0.084-0.006,0.126v0.458c0.195,0.308,0.539,0.513,0.93,0.513
	c0.152,0,0.275,0.123,0.275,0.274s-0.123,0.273-0.275,0.273c-0.521,0-0.986-0.242-1.289-0.619c-0.303,0.377-0.766,0.619-1.286,0.619
	c-0.152,0-0.275-0.122-0.275-0.273s0.123-0.274,0.275-0.274c0.392,0,0.735-0.205,0.93-0.513v-0.46
	c-0.003-0.041-0.006-0.082-0.006-0.124c0-0.02,0.002-0.038,0.006-0.057V9.787C0.989,9.753,0.386,9.578,0.131,9.266
	C0,9.105-0.005,8.955,0.002,8.886V5.991c0-1.36,0.305-2.292,0.561-2.835c0.19-0.405,0.208-0.857,0.048-1.273l-0.279-0.73
	C0.248,0.931,0.261,0.683,0.37,0.472c0.107-0.208,0.29-0.357,0.516-0.42C1.012,0.018,1.157,0,1.315,0
	c0.396,0,0.797,0.109,0.964,0.161C2.446,0.109,2.846,0,3.243,0c0.159,0,0.304,0.018,0.43,0.052c0.226,0.063,0.409,0.211,0.517,0.42
	c0.108,0.211,0.122,0.459,0.037,0.68l-0.278,0.73c-0.159,0.416-0.142,0.868,0.05,1.273C4.254,3.7,4.559,4.634,4.559,5.991v2.895
	C4.566,8.955,4.561,9.105,4.43,9.266z M3.84,8.362V5.711c0-1.131-0.417-1.908-0.565-2.362c-0.11-0.337-0.121-0.714-0.029-1.061
	L3.407,1.68c0.049-0.185,0.281-0.391,0.218-0.567C3.563,0.94,3.458,0.816,3.327,0.764C3.254,0.734,2.93,0.72,2.838,0.72
	c-0.229,0-0.461,0.091-0.558,0.134C2.184,0.811,1.951,0.72,1.722,0.72c-0.092,0-0.416,0.015-0.489,0.044
	c-0.13,0.052-0.236,0.176-0.298,0.35C0.872,1.289,1.104,1.496,1.152,1.68l0.162,0.608c0.092,0.347,0.082,0.724-0.028,1.061
	C1.138,3.801,0.721,4.578,0.721,5.711v2.651C0.717,8.42,0.72,8.545,0.796,8.679C0.962,8.972,1.62,9.119,2.281,9.12h0
	C2.94,9.119,3.599,8.972,3.766,8.679C3.841,8.545,3.844,8.42,3.84,8.362z"/>
</svg>
