<?xml version="1.0" encoding="utf-8"?>
<!-- Generator: Adobe Illustrator 15.0.0, SVG Export Plug-In . SVG Version: 6.00 Build 0)  -->
<!DOCTYPE svg PUBLIC "-//W3C//DTD SVG 1.1//EN" "http://www.w3.org/Graphics/SVG/1.1/DTD/svg11.dtd">
<svg version="1.1" id="Слой_1" xmlns="http://www.w3.org/2000/svg" xmlns:xlink="http://www.w3.org/1999/xlink" x="0px" y="0px"
	 width="409.995px" height="80.004px" viewBox="0 0 409.995 80.004" enable-background="new 0 0 409.995 80.004"
	 xml:space="preserve">
<g>
	<g>
		<path d="M48.725,15.307c-1.767,0-3.078,0.353-3.935,1.056l-1.438,5.655c-8.827,14.076-16.62,24.105-23.379,30.087
			c-4.338,3.871-7.895,5.806-10.668,5.806c-0.605,0-1.085-0.075-1.438-0.226c-0.756-0.502-1.135-1.407-1.135-2.715
			c0-3.87,3.051-10.406,9.155-19.605c5.699-8.596,10.466-14.376,14.299-17.343c6.103-4.826,10.214-7.239,12.333-7.239
			c1.108,0,2.092,0.453,2.95,1.357l0.757-1.659c-0.454-1.458-1.539-2.161-3.253-2.111c-9.332,4.324-18.033,11.286-26.103,20.887
			c-3.329,3.972-6.406,8.32-9.23,13.045C2.546,51.653,0,58.691,0,63.416c0,2.916,1.135,4.877,3.405,5.882
			c0.101,0.051,0.276,0.075,0.53,0.075c2.924,0,7.188-2.538,12.786-7.616c8.474-7.691,17.705-19.705,27.691-36.043
			c0.706,0.15,1.059,0.98,1.059,2.488c0,2.313-0.707,5.781-2.118,10.406c-2.372,7.389-4.994,14.956-7.869,22.697
			c-0.605,1.659-1.135,4.173-1.589,7.54c-0.404,3.168-0.605,5.907-0.605,8.22c0,1.81,0.151,2.79,0.454,2.94l2.497-1.583
			c0.454-6.284,1.866-13.245,4.237-20.888c5.901-17.645,8.852-30.036,8.852-37.174C49.33,18.349,49.128,16.665,48.725,15.307z
			 M72.709,68.467c-0.958,0-1.438-0.326-1.438-0.979c0-0.251,0.05-0.502,0.151-0.755c2.068-6.434,3.102-10.53,3.102-12.291
			c0-0.652-0.126-1.004-0.378-1.055c-0.757-0.201-3.09,0.993-6.999,3.581c-3.91,2.59-6.142,3.834-6.696,3.732
			c-0.151-0.049-0.227-0.2-0.227-0.452c0-0.604,0.832-2.727,2.497-6.372c1.665-3.644,2.497-5.994,2.497-7.05
			c0-0.553-0.203-0.854-0.605-0.905c-0.808,0.102-2.043,0.63-3.708,1.584c-3.985,2.313-9.786,6.586-17.401,12.818
			c-0.151,0.403-0.227,0.729-0.227,0.98c0,0.353,0.151,0.554,0.454,0.604c0.101,0,2.157-1.546,6.167-4.638
			c4.01-3.092,6.519-4.512,7.528-4.26c0.706,0.201,1.059,0.678,1.059,1.432c0,1.459-1.438,4.412-4.313,8.86
			c-2.875,4.449-4.313,6.976-4.313,7.578c0,0.202,0.076,0.328,0.227,0.378c1.109,0.351,4.54-1.735,10.29-6.259
			c6.204-4.826,9.382-7.264,9.533-7.314c0.151-0.05,0.302-0.075,0.454-0.075c0.454,0,0.681,0.377,0.681,1.131
			c0,1.156-0.656,3.532-1.967,7.125c-1.312,3.596-1.967,5.618-1.967,6.07c0,0.151,0.05,0.227,0.151,0.227
			c1.462,0.15,3.379-0.302,5.75-1.357c1.866-0.804,3.581-1.759,5.145-2.865c0.303-0.402,0.63-0.804,0.983-1.207
			c-0.958,0.302-1.917,0.63-2.875,0.98C74.702,68.217,73.516,68.467,72.709,68.467z M110.917,68.467
			c-0.958,0-1.438-0.326-1.438-0.979c0-0.251,0.05-0.502,0.151-0.755c2.067-6.434,3.102-10.53,3.102-12.291
			c0-0.652-0.126-1.004-0.378-1.055c-0.756-0.201-3.09,0.993-6.999,3.581c-3.909,2.59-6.141,3.834-6.696,3.732
			c-0.151-0.049-0.227-0.2-0.227-0.452c0-0.604,0.833-2.727,2.497-6.372c1.665-3.644,2.497-5.994,2.497-7.05
			c0-0.553-0.202-0.854-0.605-0.905c-0.807,0.102-2.042,0.63-3.707,1.584c-3.985,2.313-9.786,6.586-17.402,12.818
			c-0.151,0.403-0.227,0.729-0.227,0.98c0,0.353,0.151,0.554,0.454,0.604c0.101,0,2.156-1.546,6.167-4.638
			c4.01-3.092,6.518-4.512,7.528-4.26c0.706,0.201,1.059,0.678,1.059,1.432c0,1.459-1.438,4.412-4.313,8.86
			c-2.875,4.449-4.313,6.976-4.313,7.578c0,0.202,0.076,0.328,0.227,0.378c1.109,0.351,4.54-1.735,10.29-6.259
			c6.204-4.826,9.382-7.264,9.533-7.314c0.151-0.05,0.303-0.075,0.454-0.075c0.454,0,0.681,0.377,0.681,1.131
			c0,1.156-0.656,3.532-1.967,7.125c-1.313,3.596-1.967,5.618-1.967,6.07c0,0.151,0.049,0.227,0.151,0.227
			c1.462,0.15,3.378-0.302,5.75-1.357c1.865-0.804,3.581-1.759,5.145-2.865c0.303-0.402,0.63-0.804,0.984-1.207
			c-0.959,0.302-1.917,0.63-2.875,0.98C112.909,68.217,111.723,68.467,110.917,68.467z M148.292,62.09
			c0-0.908,0.087-1.867,0.265-2.879c0.176-0.455,0.265-0.858,0.265-1.212c0-0.858-0.45-1.362-1.349-1.515
			c-2.797-0.605-4.945-1.11-6.444-1.515c1.109,1.006,1.665,2.087,1.665,3.242c0,2.213-1.809,4.425-5.425,6.636
			c-3.316,2.012-5.877,2.941-7.687,2.79c-3.566-0.251-5.349-1.532-5.349-3.846c0-1.909,0.958-3.971,2.875-6.183
			c2.572-2.564,7.137-4.977,13.694-7.239c-4.036,0.353-7.717,1.407-11.046,3.167c-4.388,2.262-7.566,5.479-9.533,9.652
			c-0.807,1.81-1.21,3.443-1.21,4.9c0,2.665,1.438,3.997,4.313,3.997c2.47,0,5.875-0.98,10.214-2.94
			c5.346-2.414,8.599-4.299,9.76-5.656c-0.404,0.762-0.605,1.572-0.605,2.435c0,2.385,1.412,3.881,4.237,4.489
			c4.186,1.114,6.834,1.673,7.944,1.673C150.486,70.119,148.292,66.787,148.292,62.09z M218.2,48.831
			c0-1.861-0.959-3.698-2.875-5.51c-2.926-2.819-7.844-5.234-14.754-7.248c6.708-2.313,12.055-4.654,16.04-7.02
			c1.664-1.006,2.976-1.962,3.934-2.868c0.252-0.252,0.379-0.604,0.379-1.057c0-3.825-7.365-8.354-22.093-13.587
			c0.706-1.56,1.26-2.844,1.665-3.85c0.05-0.1,0.025-0.151-0.076-0.151c-0.404,0-1.816,1.106-4.237,3.318
			c-3.985-1.005-7.037-1.508-9.155-1.508c-0.707,0-1.21,0.051-1.513,0.151c-1.313,0.603-1.967,1.76-1.967,3.468
			c0,0.754,0.252,1.031,0.757,0.83c1.967-0.704,3.934-1.056,5.901-1.056c1.462,0,2.773,0.201,3.934,0.604
			c-4.338,10.822-7.642,23.278-9.911,37.371c-0.908,5.839-1.589,11.778-2.043,17.818c-1.665,0.402-3.178,1.107-4.54,2.113
			c-0.605,0.403-1.135,0.855-1.589,1.359c-0.151,0.151-0.227,0.326-0.227,0.528c0,0.353,0.428,0.529,1.287,0.529
			c1.059,0,2.773-0.302,5.145-0.905c1.462,3.367,2.497,5.58,3.102,6.636c0.201,0.302,0.403,0.452,0.605,0.452
			c0.807,0,1.261-2.517,1.362-7.549c11.449-5.334,19.999-10.566,25.648-15.7c2.37-2.163,4.06-4.202,5.069-6.114
			C218.149,49.585,218.2,49.234,218.2,48.831z M197.09,14.251c5.195,2.614,9.482,5.003,12.862,7.163
			c1.411,0.905,2.598,1.735,3.556,2.489c0.504,0.453,0.757,1.006,0.757,1.659c0,3.369-7.339,5.983-22.017,7.842
			C193.862,25.211,195.476,18.827,197.09,14.251z M187.482,65.678c-0.102-12.166,1.311-21.817,4.237-28.956
			c4.792,0.353,9.355,2.363,13.694,6.032c1.816,1.559,3.53,3.369,5.145,5.43c0.151,0.252,0.227,0.604,0.227,1.056
			C210.785,53.815,203.017,59.294,187.482,65.678z M244.377,62.09c0-0.908,0.088-1.867,0.265-2.879
			c0.177-0.455,0.266-0.858,0.266-1.212c0-0.858-0.451-1.362-1.35-1.515c-2.797-0.605-4.945-1.11-6.443-1.515
			c1.108,1.006,1.664,2.087,1.664,3.242c0,2.213-1.809,4.425-5.425,6.636c-3.316,2.012-5.878,2.941-7.687,2.79
			c-3.567-0.251-5.35-1.532-5.35-3.846c0-1.909,0.958-3.971,2.875-6.183c2.572-2.564,7.137-4.977,13.694-7.239
			c-4.036,0.353-7.718,1.407-11.046,3.167c-4.389,2.262-7.566,5.479-9.533,9.652c-0.808,1.81-1.211,3.443-1.211,4.9
			c0,2.665,1.438,3.997,4.313,3.997c2.471,0,5.876-0.98,10.215-2.94c5.346-2.414,8.599-4.299,9.76-5.656
			c-0.404,0.762-0.605,1.572-0.605,2.435c0,2.385,1.411,3.881,4.236,4.489c4.187,1.114,6.835,1.673,7.945,1.673
			C246.572,70.119,244.377,66.787,244.377,62.09z M278.5,62.887c-2.774,1.258-9.508,4.048-20.201,8.371
			c1.06-3.67,2.244-6.963,3.557-9.879c3.178-6.986,6.81-11.562,10.895-13.724c-0.504-0.251-0.983-0.377-1.438-0.377
			c-0.556,0-1.01,0.227-1.361,0.679l-0.303,0.227c-5.045,3.619-9.181,5.429-12.408,5.429c-1.866,0-3.204-0.527-4.01-1.583
			l-0.605-1.509c-1.413,0.956-1.918,2.012-1.514,3.167c0.807,1.258,2.271,1.886,4.389,1.886c2.27,0,5.069-0.779,8.398-2.338
			c-0.858,1.007-2.396,3.52-4.615,7.541c-1.464,2.313-2.775,4.927-3.935,7.842c-1.21,3.065-1.815,5.303-1.815,6.711
			c0,0.754,0.176,1.181,0.529,1.282c4.286-3.017,11.021-6.232,20.201-9.652c0.303,0.201,0.63,0.302,0.983,0.302
			c1.109,0,2.27-0.778,3.48-2.338c0.353-0.501,0.529-0.929,0.529-1.282C279.256,63.24,279.003,62.989,278.5,62.887z M304.451,64.094
			c-0.454-1.508-0.682-3.141-0.682-4.901c0-0.604,0.025-1.382,0.076-2.338c0.049-0.954,0.075-1.608,0.075-1.96
			c0-1.508-0.681-2.312-2.043-2.413c-4.338-0.302-8.146,0.905-11.425,3.619l-4.614,8.597c-1.716-4.072-2.573-7.892-2.573-11.462
			c0-2.312,0.328-4.247,0.984-5.806c2.168-4.374,8.271-12.819,18.31-25.337c9.936-12.366,15.586-18.649,16.947-18.851
			c0.655-0.05,1.324,0.301,2.005,1.056c0.681,0.754,1.021,1.634,1.021,2.639c0,2.816-2.75,4.675-8.247,5.58
			c-1.614,0.252-2.296,0.931-2.043,2.036c0.403,1.106,0.984,1.659,1.74,1.659c0.555,0,1.185-0.251,1.892-0.754
			c1.816-1.156,3.632-2.337,5.447-3.544c2.674-1.909,4.011-3.518,4.011-4.825c0-0.302-0.051-0.578-0.151-0.83
			c-1.161-2.362-1.918-3.819-2.271-4.373C321.953,0.629,320.792,0,319.431,0c-1.615,0-7.819,6.662-18.612,19.982
			c-10.946,13.473-17.504,22.622-19.672,27.448c-1.11,2.514-1.664,5.53-1.664,9.048c0,5.631,0.907,10.356,2.724,14.177
			c0.303,0.554,0.781,0.829,1.438,0.829c1.513,0,3.454-1.382,5.825-4.147l4.615-8.295c1.312-1.858,2.698-2.738,4.162-2.639
			c1.26,0.15,1.84,0.83,1.739,2.036c-0.302,1.357-0.58,2.715-0.832,4.071c-0.354,1.912-0.164,3.507,0.567,4.789
			c0.73,1.281,2.636,2.602,5.713,3.959c0.454,0.199,2.697,1.08,6.733,2.639l7.264,1.508
			C311.411,72.64,306.417,68.871,304.451,64.094z M338.951,33.253c0.353-0.553,1.109-1.206,2.27-1.96
			c1.009-0.603,1.514-1.03,1.514-1.282c0-0.402-0.983-0.829-2.951-1.282c-4.539,0-8.349,6.083-11.424,18.248
			C332.342,43.257,335.874,38.683,338.951,33.253z M335.698,68.167c-1.262,0.754-2.774,1.131-4.54,1.131
			c-1.715,0-2.825-0.125-3.329-0.377c-0.808-0.402-1.21-1.357-1.21-2.865c0-0.955,0.163-2.538,0.491-4.751
			c0.328-2.212,0.492-3.694,0.492-4.449c0-1.155-0.354-1.733-1.06-1.733c-0.656,0-1.361,0.754-2.118,2.262
			c-1.161,2.514-1.918,4.047-2.27,4.6c-0.505,0.654-1.211,1.408-2.119,2.262c-2.169,1.961-5.095,4.072-8.776,6.334
			c0.101,0.151,0.303,0.227,0.605,0.227c0.757,0,2.598-0.779,5.523-2.338c2.925-1.557,4.589-2.286,4.993-2.187
			c0.303,0.102,0.63,0.654,0.983,1.659c0.454,1.308,0.882,2.237,1.286,2.79c0.757,0.954,1.816,1.433,3.178,1.433
			c1.514,0,3.304-0.654,5.372-1.961c1.815-1.155,2.724-1.859,2.724-2.111l-0.075-0.075
			C335.798,68.066,335.747,68.117,335.698,68.167z M366.037,68.467c-0.959,0-1.438-0.326-1.438-0.979
			c0-0.251,0.05-0.502,0.151-0.755c2.067-6.434,3.103-10.53,3.103-12.291c0-0.652-0.127-1.004-0.379-1.055
			c-0.757-0.201-3.09,0.993-6.998,3.581c-3.91,2.59-6.142,3.834-6.696,3.732c-0.151-0.049-0.227-0.2-0.227-0.452
			c0-0.604,0.832-2.727,2.496-6.372c1.665-3.644,2.497-5.994,2.497-7.05c0-0.553-0.202-0.854-0.605-0.905
			c-0.807,0.102-2.043,0.63-3.707,1.584c-3.985,2.313-9.786,6.586-17.401,12.818c-0.151,0.403-0.228,0.729-0.228,0.98
			c0,0.353,0.151,0.554,0.454,0.604c0.101,0,2.156-1.546,6.166-4.638c4.011-3.092,6.519-4.512,7.528-4.26
			c0.706,0.201,1.06,0.678,1.06,1.432c0,1.459-1.438,4.412-4.313,8.86c-2.875,4.449-4.313,6.976-4.313,7.578
			c0,0.202,0.075,0.328,0.227,0.378c1.108,0.351,4.54-1.735,10.29-6.259c6.204-4.826,9.382-7.264,9.533-7.314
			c0.151-0.05,0.303-0.075,0.453-0.075c0.454,0,0.682,0.377,0.682,1.131c0,1.156-0.656,3.532-1.968,7.125
			c-1.312,3.596-1.967,5.618-1.967,6.07c0,0.151,0.05,0.227,0.151,0.227c1.462,0.15,3.379-0.302,5.75-1.357
			c1.865-0.804,3.581-1.759,5.145-2.865c0.303-0.402,0.631-0.804,0.984-1.207c-0.959,0.302-1.918,0.63-2.876,0.98
			C368.029,68.217,366.843,68.467,366.037,68.467z M403.412,62.09c0-0.908,0.088-1.867,0.265-2.879
			c0.177-0.455,0.265-0.858,0.265-1.212c0-0.858-0.45-1.362-1.349-1.515c-2.797-0.605-4.944-1.11-6.443-1.515
			c1.108,1.006,1.664,2.087,1.664,3.242c0,2.213-1.809,4.425-5.425,6.636c-3.316,2.012-5.878,2.941-7.687,2.79
			c-3.566-0.251-5.35-1.532-5.35-3.846c0-1.909,0.958-3.971,2.875-6.183c2.572-2.564,7.137-4.977,13.694-7.239
			c-4.036,0.353-7.717,1.407-11.046,3.167c-4.389,2.262-7.566,5.479-9.533,9.652c-0.808,1.81-1.211,3.443-1.211,4.9
			c0,2.665,1.438,3.997,4.313,3.997c2.471,0,5.876-0.98,10.214-2.94c5.347-2.414,8.6-4.299,9.761-5.656
			c-0.404,0.762-0.605,1.572-0.605,2.435c0,2.385,1.411,3.881,4.237,4.489c4.186,1.114,6.834,1.673,7.944,1.673
			C405.606,70.119,403.412,66.787,403.412,62.09z"/>
	</g>
</g>
</svg>
