<?xml version="1.0" encoding="utf-8"?>
<!-- Generator: Adobe Illustrator 15.0.0, SVG Export Plug-In . SVG Version: 6.00 Build 0)  -->
<!DOCTYPE svg PUBLIC "-//W3C//DTD SVG 1.1//EN" "http://www.w3.org/Graphics/SVG/1.1/DTD/svg11.dtd">
<svg version="1.1" id="Слой_1" xmlns="http://www.w3.org/2000/svg" xmlns:xlink="http://www.w3.org/1999/xlink" x="0px" y="0px"
	 width="60.566px" height="60.547px" viewBox="0 0 60.566 60.547" enable-background="new 0 0 60.566 60.547" xml:space="preserve">
<path d="M39.424,16.079c0.605,0,1.211,0,1.816-0.067c6.392-0.538,12.177-3.834,15.944-9.082l3.027-4.238
	c0.538-0.74,0.336-1.816-0.403-2.354C59.068-0.202,57.991,0,57.454,0.74l-3.095,4.306c-3.162,4.44-8.073,7.198-13.522,7.669
	c-5.449,0.471-10.765-1.48-14.599-5.382C22.874,3.969,18.232,2.758,13.927,3.7l-0.942-1.076C11.706,0.942,9.621,0,7.468,0
	C3.364,0,0,3.364,0,7.467c0,2.153,0.942,4.238,2.624,5.651L3.7,13.993c-0.201,0.942-0.336,1.884-0.336,2.826
	c0,3.565,1.413,6.996,3.969,9.485c0.337,0.336,0.74,0.471,1.211,0.471c0.472,0,0.875-0.135,1.212-0.471
	c0.672-0.672,0.672-1.749,0-2.354c-1.951-1.884-3.028-4.44-3.028-7.131c0-0.067,0-0.135,0-0.202L57.79,60.144
	c0.336,0.269,0.673,0.403,1.076,0.403c0.404,0,0.875-0.135,1.211-0.471c0.605-0.605,0.673-1.615,0.067-2.287L16.617,6.727
	c2.624-0.067,5.315,0.942,7.333,2.96C28.055,13.792,33.638,16.079,39.424,16.079z M43.864,43.864L7.535,12.917
	c0.202-0.538,0.471-1.009,0.808-1.547l0.336,0.27c0.404,0.336,0.875,0.538,1.346,0.538c0.538,0,1.076-0.202,1.48-0.606
	c0.807-0.807,0.807-2.018,0.135-2.825L9.284,5.987C8.813,5.449,8.141,5.113,7.468,5.113c-1.346,0-2.422,1.076-2.422,2.422
	c0,0.673,0.27,1.278,0.74,1.682c-0.336,0.471-0.605,0.942-0.875,1.48l-0.066-0.067C3.902,9.822,3.432,8.746,3.432,7.535
	c0-2.22,1.816-4.104,4.104-4.104c1.211,0,2.354,0.538,3.095,1.413L43.864,43.864z"/>
</svg>
