<?xml version="1.0" encoding="utf-8"?>
<!-- Generator: Adobe Illustrator 15.0.0, SVG Export Plug-In . SVG Version: 6.00 Build 0)  -->
<!DOCTYPE svg PUBLIC "-//W3C//DTD SVG 1.1//EN" "http://www.w3.org/Graphics/SVG/1.1/DTD/svg11.dtd">
<svg version="1.1" id="Слой_1" xmlns="http://www.w3.org/2000/svg" xmlns:xlink="http://www.w3.org/1999/xlink" x="0px" y="0px"
	 width="33px" height="40px" viewBox="0 0 33 40" enable-background="new 0 0 33 40" xml:space="preserve">
<path d="M2.591,33.731c0.255,0.181,0.558,0.272,0.863,0.272c0.212,0,0.425-0.045,0.624-0.135l6.476-2.945
	c0.218-0.1,0.406-0.248,0.549-0.436l14.67-19.135c0-0.001,0.002-0.001,0.002-0.002c0,0,0.001-0.001,0.002-0.002l3.738-4.875
	c0.793-1.035,0.561-2.496-0.517-3.257L25.09,0.453C24.67,0.156,24.174,0,23.653,0c-0.769,0-1.499,0.354-1.955,0.948L3.285,24.965
	c-0.143,0.186-0.235,0.403-0.269,0.633L2.013,32.41C1.938,32.919,2.16,33.426,2.591,33.731z M23.754,2.98l3.127,2.21l-2.588,3.377
	l-3.127-2.21L23.754,2.98z M5.848,26.338L19.439,8.609l3.127,2.21L8.975,28.548L5.274,30.23L5.848,26.338z M31.565,37.018H1.435
	C0.642,37.018,0,37.685,0,38.508C0,39.332,0.642,40,1.435,40h30.131C32.357,40,33,39.332,33,38.508
	C33,37.685,32.357,37.018,31.565,37.018z"/>
</svg>
