<?xml version="1.0" encoding="utf-8"?>
<!-- Generator: Adobe Illustrator 15.0.0, SVG Export Plug-In . SVG Version: 6.00 Build 0)  -->
<!DOCTYPE svg PUBLIC "-//W3C//DTD SVG 1.1//EN" "http://www.w3.org/Graphics/SVG/1.1/DTD/svg11.dtd">
<svg version="1.1" id="Слой_1" xmlns="http://www.w3.org/2000/svg" xmlns:xlink="http://www.w3.org/1999/xlink" x="0px" y="0px"
	 width="12px" height="18px" viewBox="0 0 12 18" enable-background="new 0 0 12 18" xml:space="preserve">
<g>
	<g>
		<path fill-rule="evenodd" clip-rule="evenodd" d="M10,0H2C0.737,0,0,0.717,0,2v14c0,1.283,0.737,2,2,2h8c1.263,0,2-0.717,2-2V2
			C12,0.717,11.263,0,10,0z M6,16.994c-0.561,0-1.016-0.445-1.016-0.996c0-0.549,0.455-0.995,1.016-0.995
			c0.562,0,1.016,0.446,1.016,0.995C7.016,16.549,6.562,16.994,6,16.994z M10,13c0,0.641-0.369,1-1,1H3c-0.631,0-1-0.359-1-1V3
			c0-0.642,0.369-1,1-1h6c0.631,0,1,0.359,1,1V13z"/>
	</g>
</g>
</svg>
