<?xml version="1.0" encoding="utf-8"?>
<!-- Generator: Adobe Illustrator 15.0.0, SVG Export Plug-In . SVG Version: 6.00 Build 0)  -->
<!DOCTYPE svg PUBLIC "-//W3C//DTD SVG 1.1//EN" "http://www.w3.org/Graphics/SVG/1.1/DTD/svg11.dtd">
<svg version="1.1" id="Слой_1" xmlns="http://www.w3.org/2000/svg" xmlns:xlink="http://www.w3.org/1999/xlink" x="0px" y="0px"
	 width="60.433px" height="60.502px" viewBox="0 0 60.433 60.502" enable-background="new 0 0 60.433 60.502" xml:space="preserve">
<path d="M3.855,29.738l6.717,6.728c0.335,0.336,0.738,0.471,1.209,0.471h9.671L0.967,47.229c0,0-0.067,0-0.067,0.067
	c-0.94,0.538-1.142,1.884-0.402,2.624l3.357,3.363l6.717,6.729c0.537,0.537,1.275,0.605,1.947,0.336l47.014-23.547
	c1.007-0.471,1.209-1.883,0.402-2.69l-6.716-6.728l-3.358-3.364c-0.336-0.336-0.738-0.471-1.209-0.471h-9.604l20.484-10.293
	c1.007-0.471,1.209-1.884,0.402-2.691l-6.716-6.727l-3.358-3.364c-0.47-0.471-1.275-0.605-1.947-0.337L0.9,23.684
	c-1.007,0.471-1.209,1.884-0.402,2.691L3.855,29.738z M12.116,56.783l-7.589-7.603l3.56-1.749l2.485,2.489
	c0.335,0.336,0.738,0.471,1.209,0.471c0.47,0,0.873-0.135,1.208-0.471c0.672-0.673,0.672-1.749,0-2.354l-1.679-1.683l3.56-1.748
	l2.485,2.488c0.336,0.336,0.738,0.471,1.209,0.471c0.47,0,0.873-0.135,1.209-0.471c0.671-0.672,0.671-1.748,0-2.354l-1.68-1.682
	l3.56-1.749l2.485,2.489c0.336,0.336,0.738,0.471,1.209,0.471c0.47,0,0.873-0.135,1.209-0.471c0.671-0.673,0.671-1.749,0-2.354
	l-1.68-1.682l3.56-1.75l2.485,2.489c0.336,0.337,0.738,0.472,1.209,0.472c0.47,0,0.873-0.135,1.209-0.472
	c0.672-0.673,0.672-1.749,0-2.354l-0.739-0.74h19.074L12.116,56.783z M48.047,26.846l6.717,6.728H18.9l13.432-6.728H48.047z
	 M8.086,23.818l2.485,2.489c0.335,0.336,0.738,0.471,1.209,0.471c0.47,0,0.873-0.134,1.208-0.471c0.672-0.673,0.672-1.749,0-2.354
	l-1.679-1.682l3.56-1.749l2.485,2.489c0.336,0.336,0.738,0.471,1.209,0.471c0.47,0,0.873-0.134,1.209-0.471
	c0.671-0.673,0.671-1.749,0-2.354l-1.68-1.682l3.56-1.75l2.485,2.489c0.336,0.337,0.738,0.471,1.209,0.471
	c0.47,0,0.873-0.134,1.209-0.471c0.671-0.672,0.671-1.749,0-2.354l-1.68-1.682l3.56-1.749l2.485,2.489
	c0.336,0.336,0.738,0.471,1.209,0.471c0.47,0,0.873-0.135,1.209-0.471c0.672-0.673,0.672-1.75,0-2.355l-1.68-1.682l3.561-1.749
	l2.484,2.489c0.336,0.336,0.739,0.471,1.209,0.471c0.471,0,0.873-0.134,1.209-0.471c0.672-0.673,0.672-1.749,0-2.354l-1.679-1.682
	l3.56-1.75l2.484,2.489c0.336,0.336,0.739,0.471,1.209,0.471c0.471,0,0.873-0.135,1.209-0.471c0.672-0.673,0.672-1.749,0-2.354
	l-1.679-1.682l3.56-1.749l7.589,7.602l-44.26,21.596l-7.589-7.603L8.086,23.818z"/>
</svg>
