<?xml version="1.0" encoding="utf-8"?>
<!-- Generator: Adobe Illustrator 15.0.0, SVG Export Plug-In . SVG Version: 6.00 Build 0)  -->
<!DOCTYPE svg PUBLIC "-//W3C//DTD SVG 1.1//EN" "http://www.w3.org/Graphics/SVG/1.1/DTD/svg11.dtd">
<svg version="1.1" id="Слой_1" xmlns="http://www.w3.org/2000/svg" xmlns:xlink="http://www.w3.org/1999/xlink" x="0px" y="0px"
	 width="12.96px" height="13.92px" viewBox="0 0 12.96 13.92" enable-background="new 0 0 12.96 13.92" xml:space="preserve">
<path fill-rule="evenodd" clip-rule="evenodd" d="M12.48,0.96h-1.439c0,0.005-0.004,0.337-0.004,0.342
	c0,2.737-1.152,4.717-2.257,5.535c1.629,1.214,2.257,4.141,2.257,5.781c0,0.002,0.001,0.183,0.002,0.342h1.441
	c0.266,0,0.48,0.215,0.48,0.479c0,0.266-0.215,0.48-0.48,0.48h-12c-0.265,0-0.48-0.215-0.48-0.48c0-0.265,0.215-0.479,0.48-0.479
	h1.441c0.001-0.159,0.002-0.34,0.002-0.342c0-1.626,0.623-4.542,2.235-5.765C2.536,5.701,1.923,2.935,1.923,1.302
	c0-0.005-0.003-0.337-0.003-0.342H0.48C0.215,0.96,0,0.745,0,0.48S0.215,0,0.48,0h12c0.266,0,0.48,0.215,0.48,0.48
	S12.746,0.96,12.48,0.96z M2.88,0.96c0,0.005,0.003,0.337,0.003,0.342c0,1.633,0.853,4.399,2.476,5.551
	c-1.613,1.223-2.476,4.139-2.476,5.765c0,0.002-0.001,0.183-0.002,0.342h7.197c-0.001-0.159-0.002-0.34-0.002-0.342
	c0-1.64-0.868-4.566-2.497-5.781c1.104-0.818,2.497-2.798,2.497-5.535c0-0.005,0.004-0.337,0.004-0.342H2.88z M7.657,5.278H5.303
	c-0.279,0-0.506-0.161-0.506-0.359s0.227-0.359,0.506-0.359h2.354c0.28,0,0.507,0.161,0.507,0.359
	C8.164,5.117,7.937,5.278,7.657,5.278z M9.124,11.639c0,0.198-0.227,0.359-0.507,0.359H4.343c-0.279,0-0.506-0.161-0.506-0.359
	s0.227-0.359,0.506-0.359h4.273C8.897,11.279,9.124,11.439,9.124,11.639z"/>
</svg>
