<?xml version="1.0" encoding="utf-8"?>
<!-- Generator: Adobe Illustrator 15.0.0, SVG Export Plug-In . SVG Version: 6.00 Build 0)  -->
<!DOCTYPE svg PUBLIC "-//W3C//DTD SVG 1.1//EN" "http://www.w3.org/Graphics/SVG/1.1/DTD/svg11.dtd">
<svg version="1.1" id="Слой_1" xmlns="http://www.w3.org/2000/svg" xmlns:xlink="http://www.w3.org/1999/xlink" x="0px" y="0px"
	 width="16.279px" height="13.229px" viewBox="0 0 16.279 13.229" enable-background="new 0 0 16.279 13.229" xml:space="preserve">
<path d="M16.279,1.565c-0.6,0.266-1.243,0.445-1.918,0.526c0.689-0.413,1.219-1.068,1.468-1.848c-0.646,0.382-1.36,0.66-2.121,0.811
	C13.1,0.405,12.231,0,11.271,0C9.115,0,7.53,2.012,8.018,4.101C5.241,3.961,2.78,2.632,1.133,0.611
	C0.258,2.111,0.68,4.076,2.167,5.07C1.619,5.053,1.104,4.902,0.654,4.652C0.618,6.199,1.727,7.646,3.333,7.969
	C2.862,8.097,2.348,8.127,1.824,8.026c0.425,1.327,1.659,2.293,3.12,2.319C3.54,11.446,1.771,11.938,0,11.729
	c1.478,0.948,3.233,1.501,5.119,1.501c6.201,0,9.704-5.237,9.493-9.935C15.266,2.824,15.831,2.235,16.279,1.565z"/>
</svg>
