<?xml version="1.0" encoding="utf-8"?>
<!-- Generator: Adobe Illustrator 15.0.0, SVG Export Plug-In . SVG Version: 6.00 Build 0)  -->
<!DOCTYPE svg PUBLIC "-//W3C//DTD SVG 1.1//EN" "http://www.w3.org/Graphics/SVG/1.1/DTD/svg11.dtd">
<svg version="1.1" id="Слой_1" xmlns="http://www.w3.org/2000/svg" xmlns:xlink="http://www.w3.org/1999/xlink" x="0px" y="0px"
	 width="15.259px" height="15.259px" viewBox="0 0 15.259 15.259" enable-background="new 0 0 15.259 15.259" xml:space="preserve">
<path d="M13.499,6.455h-1.328c0.097,0.376,0.153,0.769,0.153,1.174c0,2.594-2.102,4.695-4.694,4.695s-4.695-2.102-4.695-4.695
	c0-0.405,0.058-0.798,0.154-1.174H1.76v6.456c0,0.324,0.264,0.587,0.588,0.587h10.563c0.325,0,0.588-0.263,0.588-0.587V6.455z
	 M13.499,2.348c0-0.324-0.263-0.588-0.588-0.588h-1.76c-0.324,0-0.587,0.264-0.587,0.588v1.761c0,0.323,0.263,0.587,0.587,0.587
	h1.76c0.325,0,0.588-0.264,0.588-0.587V2.348z M7.63,4.695c-1.621,0-2.935,1.313-2.935,2.934c0,1.621,1.313,2.936,2.935,2.936
	c1.62,0,2.935-1.314,2.935-2.936C10.564,6.009,9.25,4.695,7.63,4.695 M13.499,15.259H1.76c-0.972,0-1.76-0.788-1.76-1.761V1.761
	C0,0.788,0.788,0,1.76,0h11.739c0.973,0,1.76,0.788,1.76,1.761v11.737C15.259,14.471,14.471,15.259,13.499,15.259"/>
</svg>
