<?xml version="1.0" encoding="utf-8"?>
<!-- Generator: Adobe Illustrator 15.0.0, SVG Export Plug-In . SVG Version: 6.00 Build 0)  -->
<!DOCTYPE svg PUBLIC "-//W3C//DTD SVG 1.1//EN" "http://www.w3.org/Graphics/SVG/1.1/DTD/svg11.dtd">
<svg version="1.1" id="Слой_1" xmlns="http://www.w3.org/2000/svg" xmlns:xlink="http://www.w3.org/1999/xlink" x="0px" y="0px"
	 width="17.236px" height="9.858px" viewBox="0 0 17.236 9.858" enable-background="new 0 0 17.236 9.858" xml:space="preserve">
<path d="M9.453,9.854c0.437,0,0.616-0.292,0.61-0.657c-0.022-1.377,0.513-2.117,1.479-1.151c1.069,1.069,1.29,1.809,2.588,1.809
	c0.493,0,1.819,0,2.298,0c1.809,0,0.197-1.814-1.076-2.996c-1.212-1.124-1.269-1.151-0.226-2.504c1.295-1.68,2.987-3.843,1.49-3.843
	c-0.293,0-0.084,0-2.859,0c-0.555,0-0.595,0.324-0.792,0.789c-0.714,1.685-2.072,3.869-2.589,3.535
	c-0.539-0.349-0.292-1.531-0.251-3.582c0.011-0.541,0.008-0.913-0.819-1.105c-2.26-0.524-4.218,0.507-3.418,0.656
	c1.128,0.21,1.021,2.456,0.757,3.51c-0.458,1.835-2.18-1.454-2.898-3.092C3.574,0.828,3.521,0.511,2.902,0.511
	c-0.339,0-1.835,0-2.338,0c-0.45,0-0.671,0.206-0.514,0.625c0.157,0.418,1.966,4.465,4.104,6.773
	C6.134,10.046,8.091,9.854,9.453,9.854z"/>
</svg>
