<?xml version="1.0" encoding="utf-8"?>
<!-- Generator: Adobe Illustrator 15.0.0, SVG Export Plug-In . SVG Version: 6.00 Build 0)  -->
<!DOCTYPE svg PUBLIC "-//W3C//DTD SVG 1.1//EN" "http://www.w3.org/Graphics/SVG/1.1/DTD/svg11.dtd">
<svg version="1.1" id="Слой_1" xmlns="http://www.w3.org/2000/svg" xmlns:xlink="http://www.w3.org/1999/xlink" x="0px" y="0px"
	 width="80px" height="35.994px" viewBox="0 0 80 35.994" enable-background="new 0 0 80 35.994" xml:space="preserve">
<path d="M73.771,0.252C67.587-1.077,53.643,3.04,49.583,7.938c-2.309-1.127-6.443-1.554-9.579-1.565c-0.002,0-0.003,0-0.004,0
	c-0.001,0-0.002,0-0.004,0c-3.112,0.011-7.206,0.432-9.569,1.576c-4.048-4.903-18.005-9.026-24.2-7.697
	C2.503,1.054,0,10.01,0,17.872c0,7.751,2.808,17.023,6.6,17.842c1.046,0.191,2.139,0.28,3.261,0.28
	c8.255-0.001,17.961-4.772,20.761-8.207c2.341,1.056,6.327,1.461,9.375,1.472c0.001,0,0.002,0,0.004,0c0.001,0,0.002,0,0.004,0
	c3.049-0.011,7.033-0.416,9.375-1.472c2.797,3.433,12.5,8.201,20.773,8.201c1.128,0,2.23-0.089,3.283-0.281
	C77.194,34.895,80,25.623,80,17.872C80,10.01,77.498,1.054,73.771,0.252z M39.999,26.429c-3.944-0.014-7.063-0.679-8.256-1.351
	c-0.456-1.523-2.163-8.046-0.128-14.448c1.083-0.698,4.288-1.414,8.384-1.429c4.136,0.015,7.365,0.746,8.382,1.423
	c2.037,6.404,0.33,12.931-0.126,14.454C47.061,25.75,43.944,26.416,39.999,26.429z M7.711,32.284
	c-1.503-0.325-4.395-6.629-4.395-14.403c0-8.135,2.68-13.902,4.081-14.204c5.548-1.187,17.893,2.878,20.442,6.617
	c-0.356,1.148-0.604,2.291-0.766,3.408c-1.191-0.56-3.737-1.537-7.438-1.783c-0.574-0.056-1.083,0.399-1.123,0.979
	c-0.039,0.579,0.401,1.08,0.982,1.118c4.594,0.305,7.215,1.861,7.241,1.876c0.036,0.021,0.075,0.031,0.113,0.048
	c-0.081,1.514-0.025,2.936,0.1,4.216c-0.07,0.023-0.144,0.034-0.21,0.074c-0.025,0.016-2.668,1.598-7.274,1.508
	c-0.005,0-0.011,0-0.017,0c-0.575,0-1.045,0.461-1.055,1.035c-0.008,0.58,0.457,1.058,1.04,1.067
	c0.112,0.002,0.221,0.002,0.332,0.002c3.775,0,6.372-0.987,7.475-1.509c0.259,1.502,0.566,2.635,0.742,3.211
	C26.493,27.895,15.663,33.745,7.711,32.284z M72.314,32.268c-7.978,1.464-18.802-4.381-20.292-6.727
	c0.176-0.576,0.482-1.709,0.74-3.209c1.104,0.52,3.698,1.508,7.471,1.508c0.109,0,0.221,0,0.332-0.002
	c0.582-0.01,1.047-0.486,1.038-1.067c-0.01-0.575-0.479-1.033-1.055-1.033c-0.005,0-0.011,0-0.017,0
	c-4.511,0.081-7.231-1.486-7.271-1.509c-0.065-0.039-0.137-0.051-0.205-0.074c0.125-1.278,0.18-2.699,0.1-4.211
	c0.038-0.018,0.078-0.027,0.115-0.05c0.025-0.016,2.597-1.565,7.233-1.873c0.581-0.039,1.021-0.539,0.982-1.117
	c-0.038-0.579-0.552-1.025-1.122-0.978c-3.699,0.245-6.242,1.222-7.433,1.781c-0.161-1.118-0.41-2.258-0.765-3.407
	c2.549-3.736,14.879-7.801,20.427-6.612c1.4,0.301,4.079,6.063,4.079,14.194C76.672,25.649,73.784,31.95,72.314,32.268z"/>
</svg>
